<svg xmlns="http://www.w3.org/2000/svg" xmlns:xlink="http://www.w3.org/1999/xlink" width="500" height="362" viewBox="0 0 500 362">
  <defs>
    <clipPath id="clip-Webcodelogo">
      <rect width="500" height="362"/>
    </clipPath>
  </defs>
  <g id="Webcodelogo" clip-path="url(#clip-Webcodelogo)">
    <rect width="500" height="362" fill="rgba(84,97,106,0)"/>
    <text id="C" transform="translate(223.11 -127.038)" fill="#8e00cb" font-size="400" font-family="MVBoli, MV Boli"><tspan x="0" y="456">C</tspan></text>
    <g id="language-24px" transform="translate(12.2 58)">
      <path id="Path_1" data-name="Path 1" d="M0,0H225.6V260.8H0Z" fill="none"/>
      <path id="Path_2" data-name="Path 2" d="M112.689,2C51.528,2,2,59.523,2,130.4S51.528,258.8,112.689,258.8c61.272,0,110.911-57.523,110.911-128.4S173.962,2,112.689,2Zm76.784,77.04H156.788A221.11,221.11,0,0,0,141.5,33.33C161.884,41.419,178.837,57.854,189.474,79.04ZM112.8,28.194A194.4,194.4,0,0,1,133.963,79.04H91.637A194.394,194.394,0,0,1,112.8,28.194ZM27.041,156.08A121.736,121.736,0,0,1,24.16,130.4a121.736,121.736,0,0,1,2.881-25.68h37.45A245.222,245.222,0,0,0,62.94,130.4a245.222,245.222,0,0,0,1.551,25.68Zm9.086,25.68H68.812A221.108,221.108,0,0,0,84.1,227.47C63.716,219.381,46.763,203.074,36.126,181.76ZM68.812,79.04H36.126C46.763,57.726,63.716,41.419,84.1,33.33a221.111,221.111,0,0,0-15.29,45.71ZM112.8,232.606A194.393,194.393,0,0,1,91.637,181.76h42.326A194.394,194.394,0,0,1,112.8,232.606Zm25.927-76.526H86.873A218.321,218.321,0,0,1,85.1,130.4a216.422,216.422,0,0,1,1.773-25.68h51.854A216.421,216.421,0,0,1,140.5,130.4,218.319,218.319,0,0,1,138.727,156.08Zm2.77,71.39a221.108,221.108,0,0,0,15.29-45.71h32.686C178.837,202.946,161.884,219.381,141.5,227.47Zm19.612-71.39a245.219,245.219,0,0,0,1.551-25.68,245.219,245.219,0,0,0-1.551-25.68h37.45a121.737,121.737,0,0,1,2.881,25.68,121.737,121.737,0,0,1-2.881,25.68Z" transform="translate(0 0)" fill="#ff1717"/>
    </g>
  </g>
</svg>
